<svg width="293" height="293" viewBox="0 0 293 293" fill="none" xmlns="http://www.w3.org/2000/svg">
<path fill-rule="evenodd" clip-rule="evenodd" d="M0.00516289 0.897756C0.00174889 0.931373 0 0.965482 0 1V7V27C0 27.5523 0.447715 28 1 28H6C6.55228 28 7 27.5523 7 27V7H27C27.5523 7 28 6.55228 28 6V1C28 0.447715 27.5523 0 27 0H7H1C0.482233 0 0.0563729 0.3935 0.00516289 0.897756Z" fill="white" fill-opacity="0.8"/>
<path fill-rule="evenodd" clip-rule="evenodd" d="M0.00516289 292.102C0.00174889 292.069 0 292.035 0 292V286V266C0 265.448 0.447715 265 1 265H6C6.55228 265 7 265.448 7 266V286H27C27.5523 286 28 286.448 28 287V292C28 292.552 27.5523 293 27 293H7H1C0.482233 293 0.0563729 292.607 0.00516289 292.102Z" fill="white" fill-opacity="0.8"/>
<path fill-rule="evenodd" clip-rule="evenodd" d="M292.995 0.897756C292.998 0.931373 293 0.965482 293 1V7V27C293 27.5523 292.552 28 292 28H287C286.448 28 286 27.5523 286 27V7H266C265.448 7 265 6.55228 265 6V1C265 0.447715 265.448 0 266 0H286H292C292.518 0 292.944 0.3935 292.995 0.897756Z" fill="white" fill-opacity="0.8"/>
<path fill-rule="evenodd" clip-rule="evenodd" d="M292.995 292.102C292.998 292.069 293 292.035 293 292V286V266C293 265.448 292.552 265 292 265H287C286.448 265 286 265.448 286 266V286H266C265.448 286 265 286.448 265 287V292C265 292.552 265.448 293 266 293H286H292C292.518 293 292.944 292.607 292.995 292.102Z" fill="white" fill-opacity="0.8"/>
</svg>
